<?xml version="1.0" encoding="utf-8"?>
<!-- Generator: Adobe Illustrator 28.1.0, SVG Export Plug-In . SVG Version: 6.00 Build 0)  -->
<svg version="1.1" id="Ebene_1" xmlns="http://www.w3.org/2000/svg" xmlns:xlink="http://www.w3.org/1999/xlink" x="0px" y="0px"
	 viewBox="0 0 24 24" style="enable-background:new 0 0 24 24;" xml:space="preserve">
<style type="text/css">
	.st0{fill:#145078;}
</style>
<path class="st0" d="M0,0v24h24V0H0z M9,21H3v-6l2.3,2.3l2.9-2.9l1.4,1.4l-2.9,2.9L9,21z M8.2,9.6L5.3,6.7L3,9V3h6L6.7,5.3l2.9,2.9
	L8.2,9.6z M21,21h-6l2.3-2.3l-2.9-2.9l1.4-1.4l2.9,2.9L21,15V21z M21,9l-2.3-2.3l-2.9,2.9l-1.4-1.4l2.9-2.9L15,3h6V9z"/>
</svg>
